<svg xmlns="http://www.w3.org/2000/svg" viewBox="0 0 130.77 73.78"><defs><style>.cls-1{fill:#46babf;}</style></defs><g id="Layer_2" data-name="Layer 2"><g id="Layer_1-2" data-name="Layer 1"><path class="cls-1" d="M21.89,14.93l.41-.13h1.82c.54,0,1.33-.63,2.37-1.9a37.47,37.47,0,0,1,3.6-1.28l.27-.27c.64-.54,1.09-.9,1.36-1.08H33a4.59,4.59,0,0,0,1.09-.64,15.35,15.35,0,0,1,4-1.45,19.86,19.86,0,0,0,4-1.36,25.32,25.32,0,0,1,3-.4L47,6.08l1.48.14c2.39,0,4.1,1.57,5.14,4.73a2,2,0,0,0,.33.84,2,2,0,0,1,.34.84q0,2.85-2.77,5.95l-.94,2.5a4.15,4.15,0,0,1-.71,1,9.65,9.65,0,0,0-1.25,2.06,14.94,14.94,0,0,1-2.91,3.55c-.27.54-.65,1.39-1.15,2.53a8.58,8.58,0,0,1-1.25,2.27,41.58,41.58,0,0,0-2.63,4c-1.42,2.34-2.13,3.72-2.13,4.12a3.93,3.93,0,0,0-1.38,2.5,9.62,9.62,0,0,1-1.39,3.31l-.13.48c1.43-.5,2.15-1.29,2.15-2.37,0-.13.39-.47,1.15-1l.54-.95a3,3,0,0,1,1.42-1.08A4.11,4.11,0,0,1,42.35,40c.85-.69,1.42-1.18,1.72-1.45a5.16,5.16,0,0,1,1.45-.84c.67-.3,1.44-1.41,2.29-3.35.09-.36.44-.65,1-.88a3.35,3.35,0,0,0,1.52-1.11,4.86,4.86,0,0,1,1-1l.54-.81a6,6,0,0,1,1-.81l3.31-4.05C58,24.48,59,23.6,59.15,23l.54-.13h.41c.72-.59,1.19-1,1.41-1.22A2.6,2.6,0,0,1,63,19a5.14,5.14,0,0,0,2.19-1.55,1.88,1.88,0,0,1,1.49-.91,1.71,1.71,0,0,1,.74.4h.14c.13,0,.27-.22.4-.67v-.68a2.69,2.69,0,0,1,.68-1.89,3.24,3.24,0,0,1,1.82-1A4,4,0,0,0,72.72,11a3.29,3.29,0,0,1,2.46-1.56A1.93,1.93,0,0,0,77,8.31c.32-.68,1.29-1.41,2.91-2.2a18.11,18.11,0,0,1,3-1.28,3.69,3.69,0,0,0,1.12-.37,2.15,2.15,0,0,1,1-.27,7.06,7.06,0,0,1,2,.4l1.22.27a7.56,7.56,0,0,1,2.9,2.5l.68.68v.27L92,9.46V10c.59.27.88.54.88.81l-.47.88a2.2,2.2,0,0,0-.27,1.11,11.15,11.15,0,0,1-.07,1.29c0,.43-.1.83-.17,1.21a7.74,7.74,0,0,1-.27,1.08,7.52,7.52,0,0,1-.37.95,5.79,5.79,0,0,1-.47.84l-.54,2.17a9.44,9.44,0,0,1-1.46,3.07,11.58,11.58,0,0,0-1.38,2.5,8.72,8.72,0,0,1-1,1.93l.14.4v1q2.1-.27,2.1-1.62a2.25,2.25,0,0,1,1.7-2.1l1.49-1.21a8.47,8.47,0,0,1,4.34-4.06A3.16,3.16,0,0,1,97.54,18l2.58-2.43,1.83-1a5.46,5.46,0,0,1,2.78-3l1.49-1c.91-.45,1.41-.89,1.53-1.32a2.67,2.67,0,0,1,1-1.32c.59-.44,1.45-1.19,2.58-2.22l.54-.27.67-.68a8.39,8.39,0,0,1,1.69-.68l.54-.27a10.83,10.83,0,0,1,3-1.72,15.18,15.18,0,0,0,3-1.45l2.37-.34A4.42,4.42,0,0,1,124.35,0q6.42,0,6.42,7.23l-.14,1.08.14,3.92a32.6,32.6,0,0,0-1.69,2.9l.13,1.22a5.4,5.4,0,0,1-.88,1.59c-.58.88-.93,1.41-1,1.59A16.42,16.42,0,0,1,126,20.94l-.68,2a3.78,3.78,0,0,1-1.15,1.29v.81c0,.67-.88,1.68-2.63,3a5,5,0,0,1-1.18,2.6,6.36,6.36,0,0,0-1.29,1.75,5.32,5.32,0,0,1-1.38,1.73,7.79,7.79,0,0,1-1.15,3,11.42,11.42,0,0,1-1.79,2.67,6.4,6.4,0,0,0-1.32,2l-.61.27c-.27,1.71-.58,2.68-.94,2.91l-1.09-.14v.27a1,1,0,0,0,.27.47,1.15,1.15,0,0,1,.28.75,1,1,0,0,1-.41.81,1.32,1.32,0,0,0-.48.67,1.64,1.64,0,0,1-.3.68,2.92,2.92,0,0,0-.31,1.32,7,7,0,0,1-1,2.67,8.26,8.26,0,0,0-1,2.29,4.71,4.71,0,0,1-.2,1,2.56,2.56,0,0,0-.14.81,14.94,14.94,0,0,1-.34,2.09c.86,2,1.47,3.4,1.83,4.12a4.59,4.59,0,0,1,.55,1.42,6.63,6.63,0,0,1-.68,3.62c-.45.61-1.56.91-3.32.91a4.14,4.14,0,0,1-3-1.18,3.52,3.52,0,0,0-2.2-1.19V65.2l-.14-.14H99.18c-.09-.09-.28-.24-.57-.47a3.64,3.64,0,0,1-.85-1l-.4-.4a6,6,0,0,1-1-2.23L96,59.66l.14-1.08L96,56.89a3.49,3.49,0,0,1,.14-1.08L96.27,54a5.66,5.66,0,0,1,.27-1.18,9.23,9.23,0,0,0,.34-2.16,3.38,3.38,0,0,1,.61-1.93,2.63,2.63,0,0,0,.61-1.15,1.3,1.3,0,0,1,.37-.77A3.28,3.28,0,0,0,99,45.27a2.75,2.75,0,0,1,1.42-2c.45-.81.83-1.58,1.14-2.3.95-1.3,1.45-2,1.49-2h1a3.74,3.74,0,0,1-.68-.94c0-1.22.47-1.83,1.42-1.83a2.28,2.28,0,0,1,.68.14l.27-.54-.27-1.15c0-.77.58-1.53,1.75-2.3A4.53,4.53,0,0,1,109,28.92l-.14-1.08A9.06,9.06,0,0,0,110,26.05a18,18,0,0,1,1.89-2.81l2.1-3.17.94-1.08s0,.05,0,0a1.65,1.65,0,0,0,.13-.27,6.3,6.3,0,0,0,.24-.71l.4-1,.48-.54c1.17-.32,1.75-.72,1.75-1.22a3.28,3.28,0,0,0-.54-.88v-.27a2.21,2.21,0,0,1,.81-1.35,8.29,8.29,0,0,0,1.52-2.26,6.48,6.48,0,0,0,.71-1.79.24.24,0,0,0-.27-.27,2.88,2.88,0,0,0-2.9,1.55q0,.4-2.64,1.62l-.67,1a2.29,2.29,0,0,1-1.42.75,2.9,2.9,0,0,0-1.59.77q-1,.78-4.29,3.52a45.46,45.46,0,0,0-4.87,4.49l-1.55,1.08c-.63.32-1,.57-1,.74,0,.46-.38,1-1.15,1.76l-.81,1a7.18,7.18,0,0,0-1.09-.33,1.58,1.58,0,0,0-1.29.74c.36.36.55.59.55.68,0,.72-.68,1.46-2,2.23l-2.91,3c-.09.09-.43.33-1,.74a3.78,3.78,0,0,0-1.32,1.52,18.74,18.74,0,0,1-2.41,3.17A19,19,0,0,1,83.52,41a2.5,2.5,0,0,0-.82.91,11.87,11.87,0,0,1-2,2.09A4.86,4.86,0,0,0,79,47q-1.29.47-1.29.81l-.4.67-.55.27a3.11,3.11,0,0,0-.2.92c0,.42-.94,1.19-2.7,2.29a10.09,10.09,0,0,1-3.31,1.66,1.29,1.29,0,0,0-.61.27,1.39,1.39,0,0,1-.54.27,9.9,9.9,0,0,1-1.79-.81q-1.59-.81-2.33-3.79l.54-1.75-.27-1.42a1.85,1.85,0,0,1,.64-1.08,2.36,2.36,0,0,0,.64-1.69q1.08-2.43,1.62-3.45l.14-1.08a6.81,6.81,0,0,1,.91-1.52,3.86,3.86,0,0,0,.78-1.89,1.44,1.44,0,0,1,.88-1.32q.73-.27,5.47-8.17V25.2l2-3.38c.58-1,1.3-2.11,2.16-3.38l.61-1.55c-1.4-.54-2.14-.81-2.23-.81a1.7,1.7,0,0,0-1,.54c0,.77-1.33,1.55-4,2.37a7.68,7.68,0,0,0-2.09,2L70.19,22a12.77,12.77,0,0,0-1.29,1.08L68,24a5.35,5.35,0,0,0-2.9,1.9l-1.83,1.28a9,9,0,0,0-1.08,1,11.46,11.46,0,0,1-2.5,1.49l-1.08,1.08-1,.54a16.25,16.25,0,0,0-1.62,2,2,2,0,0,1-1.42.95L53,34.73a6.32,6.32,0,0,1-2.5,3.38l-2,2.43a10.15,10.15,0,0,1-.95.74,1.63,1.63,0,0,1-.94.95c-.59.72-1,1.21-1.15,1.48l-.81.61c-1.21.45-1.82.81-1.82,1.08L43,46.62c0,.49-.54,1-1.62,1.42a1.31,1.31,0,0,0-.77,1.08,5.11,5.11,0,0,1-.51,1.55H38.92a5,5,0,0,0-1.28.68.38.38,0,0,0-.27.13L37.64,53a2.86,2.86,0,0,1-1.08,1.86,13.2,13.2,0,0,0-1.65,1.85c-.39.54-.67.81-.85.81h-.4l-.41.27c0,.86-.52,1.78-1.69,2.77l-.81,1A25,25,0,0,0,28.45,65a36,36,0,0,1-3.59,4.93,10,10,0,0,1-3.1,2.53c-1,.43-2,.87-3.05,1.32l-2.77-.54A3.21,3.21,0,0,0,14.76,72c-.52-.31-.77-.65-.77-1l-.82-2.37a5.18,5.18,0,0,1,.75-2.33,9.18,9.18,0,0,0,.91-2.16,10.48,10.48,0,0,1,.78-2.09,10.68,10.68,0,0,0,.61-1.46c0-1.21.19-2,.57-2.26l2.6-2c.09,0,.14-.09.14-.27v-.14l-.14-1.15c1-1.75,1.69-2.63,2-2.63a2.12,2.12,0,0,1,.54.13l-.4-1.48c0-.18.24-.48.74-.88a4.81,4.81,0,0,0,1.15-1.35l-.27-.81V47.5a3.62,3.62,0,0,1,1.69-2.64c.18-.36.54-1.28,1.08-2.77L27.64,39a4.29,4.29,0,0,1,1.43-1.72,1.45,1.45,0,0,0,.82-1,3.7,3.7,0,0,1,.47-1.35c0,.23,0,.24.1,0s.19-.65.34-1.32A2.47,2.47,0,0,1,32.33,32c1.05-2.66,1.86-4,2.45-4a1.7,1.7,0,0,1,.75.27h.27q1.08,0,1.08-.81a.24.24,0,0,0-.27-.27,1.64,1.64,0,0,1-1.08.68q-.48,0-.48-.27t.21-.27l1.49-3L36.88,23A9.48,9.48,0,0,1,38,21.76l1.15-1.56v-.67a8.16,8.16,0,0,1,.61-1.39,11.27,11.27,0,0,0,.88-2.47L41.75,14A4.76,4.76,0,0,0,42,12.5c0-.68-.09-1-.27-1l-3.92.74a41.89,41.89,0,0,0-4.54,2.57l-1.57.33a13.93,13.93,0,0,0-1.8.92,7.71,7.71,0,0,1-2.92,1,3.55,3.55,0,0,0-2.2,1l-.27.13H23.24a13.89,13.89,0,0,0-1,1.32c-.18.3-.34.44-.47.44q-6.83,4.53-8.65,5.47a16.63,16.63,0,0,0-2.77,1.73,8.72,8.72,0,0,1-1.62,1.11v.81a3.88,3.88,0,0,1-1.66,2.6,4.73,4.73,0,0,1-2.87,1.46,3.19,3.19,0,0,1-1.25-.44,5.43,5.43,0,0,0-1.89-.58c-.7-.09-1-.94-1-2.57,0-2.29,1.89-4.39,5.68-6.28A9.93,9.93,0,0,0,7.3,22.3a47.56,47.56,0,0,1,6-2.64l2-.95a6.33,6.33,0,0,1,2.26-1.24c1.06-.39,1.89-.71,2.5-1a10.7,10.7,0,0,1,1.46-.55ZM85.3,31.28,86,30.07v-.14c0-.09-.09-.13-.27-.13q-.67,0-1.08,1.35c.09.27.18.4.27.4A.44.44,0,0,0,85.3,31.28Z"/></g></g></svg>