<svg xmlns="http://www.w3.org/2000/svg" width='180px' viewBox="0 0 183.69 47.51">
  <defs>
    <linearGradient id="logo-gradient" x1="50%" y1="0%" x2="50%" y2="100%">

      <stop offset="0%" stop-color="#87ffdf">
        <animate attributeName="stop-color" values="#87cadf; #009dff; #87cadf" dur="4s" repeatCount="indefinite"></animate>
      </stop>

      <stop offset="100%" stop-color="#0000ff">
        <animate attributeName="stop-color" values="#009dc9; #00ccff; #009dc9" dur="4s" repeatCount="indefinite"></animate>
      </stop>

    </linearGradient>
  </defs>
  <g id="Layer_2" data-name="Layer 2">
    <g id="Layer_1-2" data-name="Layer 1">
      <path fill="url('#logo-gradient')" d="M146.89,4.71a4.38,4.38,0,0,1-2.62,1,6.43,6.43,0,0,1-3.1-1.19A17.74,17.74,0,0,1,139,9.3a5.31,5.31,0,0,0,3.59,1.27Q146.89,10.57,146.89,4.71Z"/>
      <path fill="url('#logo-gradient')" d="M179.27,30.6a5.94,5.94,0,0,1-3.08.87q-4.12,0-5.1-4.76,10.74-3.15,10.74-8.2a3.84,3.84,0,0,0-1.37-3.08,5.39,5.39,0,0,0-3.63-1.17q-4.38,0-8,4.18a14.08,14.08,0,0,0-3.59,9.37,9.28,9.28,0,0,0,.21,2c-1.21,1.08-2.17,1.64-2.87,1.64s-1.2-.49-1.2-1.47a18.22,18.22,0,0,1,1.44-4.79q2.1-5.37,2.1-7.71a3.38,3.38,0,0,0-.83-2.35,2.63,2.63,0,0,0-2.07-.94,7.38,7.38,0,0,0-4.18,1.72,47.54,47.54,0,0,0-6.35,6.19,55.74,55.74,0,0,1,2.47-8l-6,1.15a48.14,48.14,0,0,0-2.94,7.91,28.52,28.52,0,0,0-.89,6.64,3.24,3.24,0,0,1-1.79.61,1.05,1.05,0,0,1-.89-.5,2.21,2.21,0,0,1-.36-1.31,26.06,26.06,0,0,1,1.52-6.76l2.44-7.64h-.29l-6.21,1.29q-3.48,9.14-3.51,14.33a4.2,4.2,0,0,1-2.55.78,25.79,25.79,0,0,1-3.24-.55,28.78,28.78,0,0,0-3.16-.54c-.43,0-1,0-1.62.09l7.89-9.55q3.93-4.72,3.94-5.61c0-.16-.15-.24-.46-.24s-1,.11-2.23.33a25,25,0,0,1-4.21.33,22.31,22.31,0,0,1-3.35-.33q-2.07-.33-2.25-.33t-.75,1a43.19,43.19,0,0,1-3.33,5c-1.75,2.4-3.48,5.37-5.07,7.69-.1.13-.19.25-.26.36l-.19.29v0h0c-.55.9-1.22,2.25-1.78,2.25-1,0-1.49-.7-1.49-2.1a31.08,31.08,0,0,1,1.67-7.4l2.15-7.15h-1.37l-5,2.76a4.33,4.33,0,0,0-4.27-2.81,10.56,10.56,0,0,0-5.57,2.05,16.57,16.57,0,0,0-5.16,5.37,13.21,13.21,0,0,0-2,7c0,.19,0,.37,0,.55a14.23,14.23,0,0,1-4.53,3l2.29-12.23a43.87,43.87,0,0,1,1.46-5.61h-.56L88.41,15c-1.18.52-2.13.91-2.86,1.17a5.57,5.57,0,0,0-4.2-2q-4.27,0-8.06,4.36a14,14,0,0,0-3.8,9.34,11.4,11.4,0,0,0,.15,1.8l-.15.14a3.38,3.38,0,0,1-2.1,1c-1,0-1.49-.7-1.49-2.1a31.42,31.42,0,0,1,1.66-7.4l2.16-7.15H68.35l-5,2.76a4.33,4.33,0,0,0-4.27-2.81,10.56,10.56,0,0,0-5.57,2.05,16.57,16.57,0,0,0-5.16,5.37,13.21,13.21,0,0,0-2,7,9.62,9.62,0,0,0,.09,1.34,4.69,4.69,0,0,1-2.63,1q-3,0-3-4.91a57.16,57.16,0,0,1,1.66-11.67A64.17,64.17,0,0,1,46,2.71,8.15,8.15,0,0,0,46.8.42c0-.25-.22-.37-.66-.37a23.89,23.89,0,0,0-4.37.49c-.5.09-1.41.82-2.72,2.18A26.39,26.39,0,0,0,35.69,7,84,84,0,0,0,29.2,20.8c-1.64,4.33-2.9,7-3.76,8.06a53.74,53.74,0,0,0,1.37-13.8l0-6.54a45.1,45.1,0,0,1,.46-6.86,7.83,7.83,0,0,0,.15-1.1c0-.37-.16-.56-.49-.56a23.07,23.07,0,0,0-2.49.13,6.16,6.16,0,0,0-1.7.35,14.58,14.58,0,0,0-2.43,3.28,23.34,23.34,0,0,0-2.2,4.3,44.53,44.53,0,0,0-1.69,5.76l-.71,2.95q-1.89,7.89-4.17,11.66T7.33,32.2A2,2,0,0,1,6,31.7a3.82,3.82,0,0,1-.82-2.15,11.06,11.06,0,0,0-.44-2A.7.7,0,0,0,4,27.17c-.31,0-1,.51-2.22,1.52S0,30.61,0,31.42a3.58,3.58,0,0,0,1.47,2.81,5.15,5.15,0,0,0,3.39,1.22Q8,35.45,11.24,32T17,18.55l.61-2.39Q20,6.62,22.31,4A40.05,40.05,0,0,0,20,17.49q-.15,7.88-.48,11.16t-.66,4.77c-.22,1-.33,1.51-.33,1.54,0,.33.31.49.91.49A8.61,8.61,0,0,0,22.74,35a6.8,6.8,0,0,0,2.15-1.92,26.57,26.57,0,0,0,2.53-3.82,85.91,85.91,0,0,0,3.89-8.81Q33.89,14,35.74,10.39A28.54,28.54,0,0,1,40.5,3.76L39.09,6.3a40.58,40.58,0,0,0-3.63,10.06,44.27,44.27,0,0,0-1.4,9.4,14.75,14.75,0,0,0,1.43,7.05,4.51,4.51,0,0,0,4.16,2.64c2.27,0,4.73-1.14,7.38-3.4a7.16,7.16,0,0,0,.81,1.46,4.44,4.44,0,0,0,3.65,2,6.69,6.69,0,0,0,4.26-1.66,24.87,24.87,0,0,0,4.51-5.15Q60,35.52,63.9,35.52a5.83,5.83,0,0,0,3.22-1.12,31.52,31.52,0,0,0,3.11-2.54,6.41,6.41,0,0,0,.55,1,3.89,3.89,0,0,0,3.32,1.91,5.89,5.89,0,0,0,3.45-1.24,26.5,26.5,0,0,0,4-3.87l-1,4.81c-3.73,1.29-6.37,2.62-7.92,4a6.13,6.13,0,0,0-2.33,4.68,4.29,4.29,0,0,0,1.17,3.15,4.11,4.11,0,0,0,3.08,1.2c2.32,0,4.53-1.14,6.6-3.42a26.21,26.21,0,0,0,5.14-9.74,19,19,0,0,0,5.53-3.08,7.25,7.25,0,0,0,1.12,2.24,4.44,4.44,0,0,0,3.65,2,6.69,6.69,0,0,0,4.26-1.66,24.87,24.87,0,0,0,4.51-5.15q-.23,6.81,3.64,6.81a5.83,5.83,0,0,0,3.22-1.12c1.12-.75,4.51-6.21,6.47-9h0c1.35-2,2.71-4.16,4.24-6.36a15.14,15.14,0,0,0,4.54.73,15.59,15.59,0,0,0,3.06-.29L122.1,29.71q-4.17,5.1-4.17,5.64,0,.15.24.18a13.35,13.35,0,0,0,1.47,0c.14,0,.46-.27.94-.8a2.94,2.94,0,0,1,2.3-.81,13.32,13.32,0,0,1,3.75.81,13.78,13.78,0,0,0,3.41.8,5.78,5.78,0,0,0,3.31-1.17,18.85,18.85,0,0,0,2.16-1.88,5.68,5.68,0,0,0,.68,1.45,3.13,3.13,0,0,0,2.64,1.6c1.33,0,3.14-1,5.41-3,0,.85.12,1.84.21,3l5.4-1.27c0-1.46,0-2.63.07-3.49a35.58,35.58,0,0,1,.49-3.81,5.05,5.05,0,0,1,1.12-2.32l1.37-1.58c.5-.59,1-1.11,1.41-1.57s1-1,1.37-1.36a11.89,11.89,0,0,1,1.2-1,2,2,0,0,1,.9-.34c.41,0,.61.26.61.78a14.21,14.21,0,0,1-1.15,3.67q-2.15,5.37-2.15,8a4.53,4.53,0,0,0,1,3.08,3.32,3.32,0,0,0,2.63,1.14c2.13,0,4.61-1.27,7.42-3.77a7,7,0,0,0,1.17,1.65,7.1,7.1,0,0,0,5.36,2.12,10.5,10.5,0,0,0,5.44-1.45,30.6,30.6,0,0,0,5.57-4.5V26.76A26.76,26.76,0,0,1,179.27,30.6ZM59.44,26.75q-2.16,4.16-4.6,4.16a2,2,0,0,1-1.65-.82A3.35,3.35,0,0,1,52.54,28a16.6,16.6,0,0,1,2.19-7.64c1.45-2.76,3-4.15,4.62-4.15a2,2,0,0,1,1.64.77,3.34,3.34,0,0,1,.61,2.14A16.89,16.89,0,0,1,59.44,26.75ZM77.55,43.43c-.87,1.48-1.88,2.22-3,2.22A2.23,2.23,0,0,1,72.81,45a2.51,2.51,0,0,1-.66-1.8q0-3.7,7.89-6.54A28.71,28.71,0,0,1,77.55,43.43Zm5.6-20.31a16.31,16.31,0,0,1-2.09,5.2A3.74,3.74,0,0,1,78,30.37a2.16,2.16,0,0,1-1.85-1,4.59,4.59,0,0,1-.69-2.67,14.52,14.52,0,0,1,1.93-7.11c1.28-2.32,2.79-3.49,4.51-3.49a1.73,1.73,0,0,1,1.43.75,3,3,0,0,1,.58,1.89A22.67,22.67,0,0,1,83.15,23.12Zm21.39,3.63q-2.16,4.16-4.6,4.16a2,2,0,0,1-1.65-.82A3.35,3.35,0,0,1,97.64,28a16.6,16.6,0,0,1,2.19-7.64c1.45-2.76,3-4.15,4.62-4.15a2,2,0,0,1,1.64.77,3.34,3.34,0,0,1,.61,2.14A16.89,16.89,0,0,1,104.54,26.75Zm67.82-8.09c1-1.63,2-2.45,3.08-2.45s1.7.78,1.7,2.34q0,4.74-6.25,6.5A12.34,12.34,0,0,1,172.36,18.66Z"/>
    </g>
  </g>
</svg>